<?xml version="1.0" encoding="utf-8"?>
<svg id="noun_550140_ccCanvas" width="95" height="117" xmlns="http://www.w3.org/2000/svg">
  <g>
    <g id="noun_550140_ccCanvas-group3" transform="matrix(1.526137, -0.056381, 0.056381, 1.526137, -28.897758, -1.048814)">
      <path id="noun_550140_ccCanvas-bezier" stroke="none" d="M 48,13 C 49.7,13 51,14.3 51,16 51,17.7 49.7,19 48,19 46.3,19 45,17.7 45,16 45,14.3 46.3,13 48,13 Z M 48,11 C 45.2,11 43,13.2 43,16 43,18.8 45.2,21 48,21 50.8,21 53,18.8 53,16 53,13.2 50.8,11 48,11 L 48,11 Z M 48,11" style="fill: rgb(255, 255, 255);"/>
    </g>
    <circle id="noun_550140_ccCanvas-oval5" stroke="none" cx="68.024" cy="26.059" r="7.585" transform="matrix(0.999318, -0.036919, 0.03692, 0.999318, 2.397974, 7.5692)" style="fill: rgb(255, 255, 255);"/>
    <circle id="circle-1" stroke="none" cx="68.024" cy="26.059" r="7.585" transform="matrix(0.999318, -0.036919, 0.036919, 0.999319, 11.887194, 33.30722)" style="fill: rgb(255, 255, 255);"/>
    <circle id="circle-2" stroke="none" cx="68.024" cy="26.059" r="7.585" transform="matrix(0.999319, -0.036919, 0.036918, 0.999319, -60.131527, 33.30722)" style="fill: rgb(255, 255, 255);"/>
    <circle id="circle-3" stroke="none" cx="68.024" cy="26.059" r="7.585" transform="matrix(0.999319, -0.036919, 0.036918, 0.999318, -49.524132, 7.514491)" style="fill: rgb(255, 255, 255);"/>
    <circle id="circle-4" stroke="none" cx="68.024" cy="26.059" r="7.585" transform="matrix(0.999319, -0.036919, 0.036918, 0.999318, -23.619747, 69.260742)" style="fill: rgb(255, 255, 255);"/>
    <g id="g-1" transform="matrix(1.526137, -0.056381, 0.056381, 1.526137, -3.043693, 60.806606)">
      <path id="path-1" stroke="none" d="M 48,13 C 49.7,13 51,14.3 51,16 51,17.7 49.7,19 48,19 46.3,19 45,17.7 45,16 45,14.3 46.3,13 48,13 Z M 48,11 C 45.2,11 43,13.2 43,16 43,18.8 45.2,21 48,21 50.8,21 53,18.8 53,16 53,13.2 50.8,11 48,11 L 48,11 Z M 48,11" style="fill: rgb(255, 255, 255);"/>
    </g>
    <g id="g-2" transform="matrix(1.526137, -0.056381, 0.056381, 1.526137, -54.964134, 60.918259)">
      <path id="path-2" stroke="none" d="M 48,13 C 49.7,13 51,14.3 51,16 51,17.7 49.7,19 48,19 46.3,19 45,17.7 45,16 45,14.3 46.3,13 48,13 Z M 48,11 C 45.2,11 43,13.2 43,16 43,18.8 45.2,21 48,21 50.8,21 53,18.8 53,16 53,13.2 50.8,11 48,11 L 48,11 Z M 48,11" style="fill: rgb(255, 255, 255);"/>
    </g>
  </g>
</svg>