<?xml version="1.0" encoding="UTF-8"?>
<!DOCTYPE svg PUBLIC "-//W3C//DTD SVG 1.1//EN" "http://www.w3.org/Graphics/SVG/1.1/DTD/svg11.dtd">
<svg version="1.1" xmlns="http://www.w3.org/2000/svg" xmlns:xlink="http://www.w3.org/1999/xlink" width="95" height="117"  xml:space="preserve" id="noun_550140_ccCanvas">
    <!-- Generated by PaintCode (www.paintcodeapp.com) -->
    <g id="noun_550140_ccCanvas-group">
        <g id="noun_550140_ccCanvas-group2">
            <circle id="noun_550140_ccCanvas-oval" stroke="none" fill="rgb(0, 0, 0)" cx="88" cy="56" r="5" />
            <circle id="noun_550140_ccCanvas-oval2" stroke="none" fill="rgb(0, 0, 0)" cx="48" cy="96" r="5" />
            <circle id="noun_550140_ccCanvas-oval3" stroke="none" fill="rgb(0, 0, 0)" cx="8" cy="56" r="5" />
            <g id="noun_550140_ccCanvas-group3">
                <path id="noun_550140_ccCanvas-bezier" stroke="none" fill="rgb(0, 0, 0)" d="M 48,13 C 49.7,13 51,14.3 51,16 51,17.7 49.7,19 48,19 46.3,19 45,17.7 45,16 45,14.3 46.3,13 48,13 Z M 48,11 C 45.2,11 43,13.2 43,16 43,18.8 45.2,21 48,21 50.8,21 53,18.8 53,16 53,13.2 50.8,11 48,11 L 48,11 Z M 48,11" />
            </g>
        </g>
        <g id="noun_550140_ccCanvas-group4">
            <g id="noun_550140_ccCanvas-group6">
                <path id="noun_550140_ccCanvas-bezier3" stroke="none" fill="rgb(0, 0, 0)" d="M 19.69,22.72 C 22.45,22.72 24.69,24.95 24.69,27.72 24.69,30.48 22.45,32.72 19.69,32.72 16.93,32.72 14.69,30.48 14.69,27.72 14.69,24.95 16.93,22.72 19.69,22.72 Z M 19.69,22.72" />
            </g>
            <path id="noun_550140_ccCanvas-bezier4" stroke="none" fill="rgb(0, 0, 0)" d="M 19.3,81.7 C 20.1,81.7 20.9,82 21.4,82.6 22,83.2 22.3,83.9 22.3,84.7 22.3,85.5 22,86.3 21.4,86.8 20.8,87.4 20.1,87.7 19.3,87.7 18.5,87.7 17.7,87.4 17.2,86.8 16.6,86.2 16.3,85.5 16.3,84.7 16.3,83.9 16.6,83.1 17.2,82.6 17.7,82 18.5,81.7 19.3,81.7 Z M 19.3,79.7 C 18,79.7 16.7,80.2 15.8,81.2 13.8,83.2 13.8,86.3 15.8,88.3 16.8,89.3 18.1,89.8 19.3,89.8 20.5,89.8 21.9,89.3 22.8,88.3 24.8,86.3 24.8,83.2 22.8,81.2 21.8,80.2 20.6,79.7 19.3,79.7 L 19.3,79.7 Z M 19.3,79.7" />
            <circle id="noun_550140_ccCanvas-oval5" stroke="none" fill="rgb(0, 0, 0)" cx="76" cy="28" r="5" />
            <path id="noun_550140_ccCanvas-bezier2" stroke="none" fill="rgb(0, 0, 0)" d="M 76.3,81.7 C 77.1,81.7 77.9,82 78.4,82.6 79,83.2 79.3,83.9 79.3,84.7 79.3,85.5 79,86.3 78.4,86.8 77.8,87.4 77.1,87.7 76.3,87.7 75.5,87.7 74.7,87.4 74.2,86.8 73.6,86.2 73.3,85.5 73.3,84.7 73.3,83.9 73.6,83.1 74.2,82.6 74.7,82 75.5,81.7 76.3,81.7 Z M 76.3,79.7 C 75,79.7 73.7,80.2 72.8,81.2 70.8,83.2 70.8,86.3 72.8,88.3 73.8,89.3 75.1,89.8 76.3,89.8 77.5,89.8 78.9,89.3 79.8,88.3 81.8,86.3 81.8,83.2 79.8,81.2 78.8,80.2 77.6,79.7 76.3,79.7 L 76.3,79.7 Z M 76.3,79.7" />
        </g>
    </g>
</svg>
